<svg width="52" height="68" viewBox="0 0 52 68" fill="none" xmlns="http://www.w3.org/2000/svg">
<path d="M47.9272 0.597197C49.3734 -0.454619 51.3456 0.46572 51.3456 2.17492V65.2839C51.3456 67.1246 49.2419 68.0449 47.9272 66.9931L42.931 61.0767L35.6998 66.9931C35.3054 67.2561 34.9109 67.519 34.385 67.519C33.9906 67.519 33.5962 67.2561 33.2017 66.9931L26.102 61.0767L18.8707 66.9931C18.4763 67.2561 18.0819 67.519 17.5559 67.519C17.1615 67.519 16.7671 67.2561 16.3727 66.9931L9.27289 61.0767L4.14528 66.9931C2.83051 68.0449 0.858356 67.1246 0.858356 65.2839V2.17492C0.858356 0.46572 2.83051 -0.454619 4.14528 0.597197L9.27289 6.38219L16.3727 0.597197C16.7671 0.334243 17.1615 0.0712891 17.6874 0.0712891C18.0819 0.0712891 18.4763 0.334243 18.8707 0.597197L26.102 6.38219L33.2017 0.597197C33.5962 0.334243 33.9906 0.0712891 34.5165 0.0712891C34.9109 0.0712891 35.3054 0.334243 35.6998 0.597197L42.931 6.38219L47.9272 0.597197ZM42.931 47.403V45.2994C42.931 44.7735 42.4051 44.2476 41.8792 44.2476H10.3247C9.66732 44.2476 9.27289 44.7735 9.27289 45.2994V47.403C9.27289 48.0604 9.66732 48.4549 10.3247 48.4549H41.8792C42.4051 48.4549 42.931 48.0604 42.931 47.403ZM42.931 34.7812V32.6776C42.931 32.1517 42.4051 31.6258 41.8792 31.6258H10.3247C9.66732 31.6258 9.27289 32.1517 9.27289 32.6776V34.7812C9.27289 35.4386 9.66732 35.8331 10.3247 35.8331H41.8792C42.4051 35.8331 42.931 35.4386 42.931 34.7812ZM42.931 22.1594V20.0558C42.931 19.5299 42.4051 19.004 41.8792 19.004H10.3247C9.66732 19.004 9.27289 19.5299 9.27289 20.0558V22.1594C9.27289 22.8168 9.66732 23.2113 10.3247 23.2113H41.8792C42.4051 23.2113 42.931 22.8168 42.931 22.1594Z" fill="#BBBDBF"/>
</svg>
