<svg width="68" height="68" viewBox="0 0 68 68" fill="none" xmlns="http://www.w3.org/2000/svg">
<path d="M34.1819 38.0107C23.6432 38.0107 15.2122 29.5797 15.2122 19.041C15.2122 8.63399 23.6432 0.0712891 34.1819 0.0712891C44.5889 0.0712891 53.1516 8.63399 53.1516 19.041C53.1516 29.5797 44.5889 38.0107 34.1819 38.0107ZM51.0438 42.2261C60.2652 42.2261 67.9058 49.8667 67.9058 59.0881V61.1958C67.9058 64.7526 65.0076 67.519 61.5825 67.519H6.78123C3.22442 67.519 0.458008 64.7526 0.458008 61.1958V59.0881C0.458008 49.8667 7.96684 42.2261 17.3199 42.2261H24.5653C27.4635 43.6752 30.7568 44.3339 34.1819 44.3339C37.607 44.3339 40.7686 43.6752 43.6667 42.2261H51.0438Z" fill="#BBBDBF"/>
</svg>
